<mxfile host="app.diagrams.net" agent="Mozilla/5.0 (Windows NT 10.0; Win64; x64) AppleWebKit/537.36 (KHTML, like Gecko) Chrome/137.0.0.0 Safari/537.36" version="27.1.5">
  <diagram id="LK6pIlDXIP7XsG0jNZaa" name="Page-1">
    <mxGraphModel dx="293" dy="310" grid="1" gridSize="10" guides="1" tooltips="1" connect="1" arrows="1" fold="1" page="1" pageScale="1" pageWidth="827" pageHeight="1169" math="0" shadow="0">
      <root>
        <mxCell id="0" />
        <mxCell id="1" parent="0" />
        <mxCell id="2" value="Commande : commande" style="shape=umlLifeline;perimeter=lifelinePerimeter;whiteSpace=wrap;container=1;dropTarget=0;collapsible=0;recursiveResize=0;outlineConnect=0;portConstraint=eastwest;newEdgeStyle={&quot;edgeStyle&quot;:&quot;elbowEdgeStyle&quot;,&quot;elbow&quot;:&quot;vertical&quot;,&quot;curved&quot;:0,&quot;rounded&quot;:0};size=65;" parent="1" vertex="1">
          <mxGeometry width="150" height="1078" as="geometry" />
        </mxCell>
        <mxCell id="3" value="Client : client" style="shape=umlLifeline;perimeter=lifelinePerimeter;whiteSpace=wrap;container=1;dropTarget=0;collapsible=0;recursiveResize=0;outlineConnect=0;portConstraint=eastwest;newEdgeStyle={&quot;edgeStyle&quot;:&quot;elbowEdgeStyle&quot;,&quot;elbow&quot;:&quot;vertical&quot;,&quot;curved&quot;:0,&quot;rounded&quot;:0};size=65;" parent="1" vertex="1">
          <mxGeometry x="380" width="150" height="1078" as="geometry" />
        </mxCell>
        <mxCell id="4" value="Magasin : magasin" style="shape=umlLifeline;perimeter=lifelinePerimeter;whiteSpace=wrap;container=1;dropTarget=0;collapsible=0;recursiveResize=0;outlineConnect=0;portConstraint=eastwest;newEdgeStyle={&quot;edgeStyle&quot;:&quot;elbowEdgeStyle&quot;,&quot;elbow&quot;:&quot;vertical&quot;,&quot;curved&quot;:0,&quot;rounded&quot;:0};size=65;" parent="1" vertex="1">
          <mxGeometry x="580" width="150" height="1078" as="geometry" />
        </mxCell>
        <mxCell id="5" value="Eve Davis" style="shape=umlLifeline;perimeter=lifelinePerimeter;whiteSpace=wrap;container=1;dropTarget=0;collapsible=0;recursiveResize=0;outlineConnect=0;portConstraint=eastwest;newEdgeStyle={&quot;edgeStyle&quot;:&quot;elbowEdgeStyle&quot;,&quot;elbow&quot;:&quot;vertical&quot;,&quot;curved&quot;:0,&quot;rounded&quot;:0};size=65;" parent="1" vertex="1">
          <mxGeometry x="949" width="150" height="1078" as="geometry" />
        </mxCell>
        <mxCell id="6" value="client.getNumeroClient()" style="verticalAlign=bottom;edgeStyle=elbowEdgeStyle;elbow=vertical;curved=0;rounded=0;endArrow=block;" parent="1" source="2" target="3" edge="1">
          <mxGeometry relative="1" as="geometry">
            <Array as="points">
              <mxPoint x="274" y="109" />
            </Array>
          </mxGeometry>
        </mxCell>
        <mxCell id="7" value="numeroClientÂ  : int" style="verticalAlign=bottom;edgeStyle=elbowEdgeStyle;elbow=horizontal;curved=0;rounded=0;dashed=1;dashPattern=2 3;endArrow=block;" parent="1" source="3" target="2" edge="1">
          <mxGeometry relative="1" as="geometry">
            <Array as="points">
              <mxPoint x="277" y="163" />
            </Array>
          </mxGeometry>
        </mxCell>
        <mxCell id="8" value="client.getNom()" style="verticalAlign=bottom;edgeStyle=elbowEdgeStyle;elbow=vertical;curved=0;rounded=0;endArrow=block;" parent="1" source="2" target="3" edge="1">
          <mxGeometry relative="1" as="geometry">
            <Array as="points">
              <mxPoint x="374" y="217" />
            </Array>
          </mxGeometry>
        </mxCell>
        <mxCell id="9" value="nomClient : String" style="verticalAlign=bottom;edgeStyle=elbowEdgeStyle;elbow=vertical;curved=0;rounded=0;dashed=1;dashPattern=2 3;endArrow=block;" parent="1" source="3" target="2" edge="1">
          <mxGeometry relative="1" as="geometry">
            <Array as="points">
              <mxPoint x="377" y="271" />
            </Array>
          </mxGeometry>
        </mxCell>
        <mxCell id="EGD6l8uDcS2yvMh4lHUq-23" value="client.getPrenom()" style="verticalAlign=bottom;edgeStyle=elbowEdgeStyle;elbow=vertical;curved=0;rounded=0;endArrow=block;" parent="1" source="2" target="3" edge="1">
          <mxGeometry relative="1" as="geometry">
            <Array as="points">
              <mxPoint x="270" y="330" />
            </Array>
            <mxPoint x="100" y="330" as="sourcePoint" />
            <mxPoint x="481" y="330" as="targetPoint" />
          </mxGeometry>
        </mxCell>
        <mxCell id="EGD6l8uDcS2yvMh4lHUq-24" value="prenomClient :String" style="verticalAlign=bottom;edgeStyle=elbowEdgeStyle;elbow=horizontal;curved=0;rounded=0;dashed=1;dashPattern=2 3;endArrow=block;" parent="1" edge="1">
          <mxGeometry x="-0.0499" relative="1" as="geometry">
            <Array as="points">
              <mxPoint x="373" y="380" />
            </Array>
            <mxPoint x="451" y="380" as="sourcePoint" />
            <mxPoint x="70" y="380" as="targetPoint" />
            <mxPoint as="offset" />
          </mxGeometry>
        </mxCell>
        <mxCell id="LcZiEbGBXYM4OcZ8GBzC-11" value="" style="curved=1;endArrow=classic;html=1;rounded=0;" edge="1" parent="1">
          <mxGeometry width="50" height="50" relative="1" as="geometry">
            <mxPoint x="74.38888888888891" y="410" as="sourcePoint" />
            <mxPoint x="74.38888888888891" y="460" as="targetPoint" />
            <Array as="points">
              <mxPoint x="140" y="420" />
              <mxPoint x="150" y="460" />
            </Array>
          </mxGeometry>
        </mxCell>
        <mxCell id="LcZiEbGBXYM4OcZ8GBzC-12" value="commande.enligne" style="edgeLabel;html=1;align=center;verticalAlign=middle;resizable=0;points=[];" vertex="1" connectable="0" parent="LcZiEbGBXYM4OcZ8GBzC-11">
          <mxGeometry x="-0.0502" y="2" relative="1" as="geometry">
            <mxPoint x="13" y="-29" as="offset" />
          </mxGeometry>
        </mxCell>
        <mxCell id="LcZiEbGBXYM4OcZ8GBzC-13" value="" style="swimlane;startSize=0;" vertex="1" parent="1">
          <mxGeometry x="70" y="470" width="640" height="160" as="geometry" />
        </mxCell>
        <mxCell id="LcZiEbGBXYM4OcZ8GBzC-14" value="loop" style="text;html=1;align=center;verticalAlign=middle;whiteSpace=wrap;rounded=0;" vertex="1" parent="LcZiEbGBXYM4OcZ8GBzC-13">
          <mxGeometry width="60" height="30" as="geometry" />
        </mxCell>
        <mxCell id="LcZiEbGBXYM4OcZ8GBzC-15" value="commande.enligne==true" style="text;html=1;align=center;verticalAlign=middle;resizable=0;points=[];autosize=1;strokeColor=none;fillColor=none;" vertex="1" parent="LcZiEbGBXYM4OcZ8GBzC-13">
          <mxGeometry x="40" width="160" height="30" as="geometry" />
        </mxCell>
        <mxCell id="LcZiEbGBXYM4OcZ8GBzC-17" value="nomMag : String" style="verticalAlign=bottom;edgeStyle=elbowEdgeStyle;elbow=horizontal;curved=0;rounded=0;dashed=1;dashPattern=2 3;endArrow=block;" edge="1" parent="LcZiEbGBXYM4OcZ8GBzC-13" target="2">
          <mxGeometry x="-0.0499" relative="1" as="geometry">
            <Array as="points">
              <mxPoint x="323" y="115" />
            </Array>
            <mxPoint x="584.5" y="115" as="sourcePoint" />
            <mxPoint x="20" y="115" as="targetPoint" />
            <mxPoint as="offset" />
          </mxGeometry>
        </mxCell>
        <mxCell id="LcZiEbGBXYM4OcZ8GBzC-18" value="" style="swimlane;startSize=0;" vertex="1" parent="1">
          <mxGeometry x="70" y="630" width="640" height="160" as="geometry" />
        </mxCell>
        <mxCell id="LcZiEbGBXYM4OcZ8GBzC-19" value="alt" style="text;html=1;align=center;verticalAlign=middle;whiteSpace=wrap;rounded=0;" vertex="1" parent="LcZiEbGBXYM4OcZ8GBzC-18">
          <mxGeometry width="60" height="30" as="geometry" />
        </mxCell>
        <mxCell id="LcZiEbGBXYM4OcZ8GBzC-20" value="commande.enligne==false" style="text;html=1;align=center;verticalAlign=middle;resizable=0;points=[];autosize=1;strokeColor=none;fillColor=none;" vertex="1" parent="LcZiEbGBXYM4OcZ8GBzC-18">
          <mxGeometry x="40" width="160" height="30" as="geometry" />
        </mxCell>
        <mxCell id="LcZiEbGBXYM4OcZ8GBzC-22" value="nomMag : String" style="verticalAlign=bottom;edgeStyle=elbowEdgeStyle;elbow=horizontal;curved=0;rounded=0;dashed=1;dashPattern=2 3;endArrow=block;" edge="1" parent="LcZiEbGBXYM4OcZ8GBzC-18" target="2">
          <mxGeometry x="-0.0499" relative="1" as="geometry">
            <Array as="points">
              <mxPoint x="323" y="115" />
            </Array>
            <mxPoint x="584.5" y="115" as="sourcePoint" />
            <mxPoint x="20" y="115" as="targetPoint" />
            <mxPoint as="offset" />
          </mxGeometry>
        </mxCell>
        <mxCell id="LcZiEbGBXYM4OcZ8GBzC-21" value="magasin.getNomMag()" style="verticalAlign=bottom;edgeStyle=elbowEdgeStyle;elbow=vertical;curved=0;rounded=0;endArrow=block;" edge="1" parent="LcZiEbGBXYM4OcZ8GBzC-18">
          <mxGeometry relative="1" as="geometry">
            <Array as="points">
              <mxPoint x="120" y="60" />
            </Array>
            <mxPoint x="4.323529411764639" y="59.99999999999977" as="sourcePoint" />
            <mxPoint x="584.5000000000002" y="59.99999999999977" as="targetPoint" />
          </mxGeometry>
        </mxCell>
        <mxCell id="LcZiEbGBXYM4OcZ8GBzC-16" value="magasin.getNomMag()" style="verticalAlign=bottom;edgeStyle=elbowEdgeStyle;elbow=vertical;curved=0;rounded=0;endArrow=block;" edge="1" parent="1" source="2" target="4">
          <mxGeometry relative="1" as="geometry">
            <Array as="points">
              <mxPoint x="90" y="530" />
            </Array>
            <mxPoint x="100" y="540" as="sourcePoint" />
            <mxPoint x="451" y="540.1800000000001" as="targetPoint" />
          </mxGeometry>
        </mxCell>
        <mxCell id="LcZiEbGBXYM4OcZ8GBzC-23" value="" style="swimlane;startSize=0;" vertex="1" parent="1">
          <mxGeometry x="70" y="880" width="640" height="160" as="geometry" />
        </mxCell>
        <mxCell id="LcZiEbGBXYM4OcZ8GBzC-24" value="loop" style="text;html=1;align=center;verticalAlign=middle;whiteSpace=wrap;rounded=0;" vertex="1" parent="LcZiEbGBXYM4OcZ8GBzC-23">
          <mxGeometry width="60" height="30" as="geometry" />
        </mxCell>
        <mxCell id="LcZiEbGBXYM4OcZ8GBzC-25" value="&lt;span style=&quot;font-size: 11px; background-color: rgb(255, 255, 255);&quot;&gt;commande.livraison!=Livraison.DOMICILE&lt;/span&gt;" style="text;html=1;align=center;verticalAlign=middle;resizable=0;points=[];autosize=1;strokeColor=none;fillColor=none;" vertex="1" parent="LcZiEbGBXYM4OcZ8GBzC-23">
          <mxGeometry x="50" width="230" height="30" as="geometry" />
        </mxCell>
        <mxCell id="LcZiEbGBXYM4OcZ8GBzC-26" value="reception : String" style="verticalAlign=bottom;edgeStyle=elbowEdgeStyle;elbow=horizontal;curved=0;rounded=0;dashed=1;dashPattern=2 3;endArrow=block;" edge="1" parent="LcZiEbGBXYM4OcZ8GBzC-23">
          <mxGeometry x="-0.0499" relative="1" as="geometry">
            <Array as="points">
              <mxPoint x="318.83" y="79.33" />
            </Array>
            <mxPoint x="580.33" y="79.33" as="sourcePoint" />
            <mxPoint x="-0.003333333333371158" y="79.33" as="targetPoint" />
            <mxPoint as="offset" />
          </mxGeometry>
        </mxCell>
        <mxCell id="LcZiEbGBXYM4OcZ8GBzC-29" value="commande.reception" style="verticalAlign=bottom;edgeStyle=elbowEdgeStyle;elbow=vertical;curved=0;rounded=0;endArrow=block;" edge="1" parent="LcZiEbGBXYM4OcZ8GBzC-23">
          <mxGeometry relative="1" as="geometry">
            <Array as="points">
              <mxPoint x="130" y="50" />
            </Array>
            <mxPoint x="4.166666666666629" y="50" as="sourcePoint" />
            <mxPoint x="584.5" y="50" as="targetPoint" />
          </mxGeometry>
        </mxCell>
        <mxCell id="LcZiEbGBXYM4OcZ8GBzC-32" value="enligne : boolean" style="verticalAlign=bottom;edgeStyle=elbowEdgeStyle;elbow=horizontal;curved=0;rounded=0;dashed=1;dashPattern=2 3;endArrow=block;" edge="1" parent="LcZiEbGBXYM4OcZ8GBzC-23">
          <mxGeometry x="-0.0499" relative="1" as="geometry">
            <Array as="points">
              <mxPoint x="323.9" y="130" />
            </Array>
            <mxPoint x="579.57" y="130" as="sourcePoint" />
            <mxPoint x="-0.0014285714285620088" y="130" as="targetPoint" />
            <mxPoint as="offset" />
          </mxGeometry>
        </mxCell>
        <mxCell id="LcZiEbGBXYM4OcZ8GBzC-31" value="commande.enligne" style="verticalAlign=bottom;edgeStyle=elbowEdgeStyle;elbow=vertical;curved=0;rounded=0;endArrow=block;" edge="1" parent="LcZiEbGBXYM4OcZ8GBzC-23">
          <mxGeometry relative="1" as="geometry">
            <Array as="points">
              <mxPoint x="135.07" y="110" />
            </Array>
            <mxPoint x="-0.0014285714285549034" y="110" as="sourcePoint" />
            <mxPoint x="579.57" y="110" as="targetPoint" />
          </mxGeometry>
        </mxCell>
        <mxCell id="LcZiEbGBXYM4OcZ8GBzC-27" value="" style="curved=1;endArrow=classic;html=1;rounded=0;" edge="1" parent="1" source="2" target="2">
          <mxGeometry width="50" height="50" relative="1" as="geometry">
            <mxPoint x="84.38888888888891" y="810" as="sourcePoint" />
            <mxPoint x="84.38888888888891" y="860" as="targetPoint" />
            <Array as="points">
              <mxPoint x="150" y="820" />
              <mxPoint x="160" y="860" />
            </Array>
          </mxGeometry>
        </mxCell>
        <mxCell id="LcZiEbGBXYM4OcZ8GBzC-28" value="commande.livraison" style="edgeLabel;html=1;align=center;verticalAlign=middle;resizable=0;points=[];" vertex="1" connectable="0" parent="LcZiEbGBXYM4OcZ8GBzC-27">
          <mxGeometry x="-0.0502" y="2" relative="1" as="geometry">
            <mxPoint x="23" y="-30" as="offset" />
          </mxGeometry>
        </mxCell>
      </root>
    </mxGraphModel>
  </diagram>
</mxfile>
